<svg xmlns="http://www.w3.org/2000/svg" version="1.1" xmlns:xlink="http://www.w3.org/1999/xlink" xmlns:svgjs="http://svgjs.dev/svgjs" width="1440" height="720" preserveAspectRatio="none" viewBox="0 0 1440 720"><g mask="url(&quot;#SvgjsMask1002&quot;)" fill="none"><rect width="1440" height="720" x="0" y="0" fill="rgba(255, 255, 255, 1)"></rect><path d="M-41.99 515.64L-41.99 515.64" stroke="rgba(203, 203, 203, 1)" stroke-width="1.5"></path><path d="M-41.99 515.64L96.94 536.14" stroke="rgba(203, 203, 203, 1)" stroke-width="1.5"></path><path d="M-41.99 515.64L-58.41 704.08" stroke="rgba(203, 203, 203, 1)" stroke-width="1.5"></path><path d="M-41.99 515.64L81.42 700.56" stroke="rgba(203, 203, 203, 1)" stroke-width="1.5"></path><path d="M-41.99 515.64L228.25 504.42" stroke="rgba(203, 203, 203, 1)" stroke-width="1.5"></path><path d="M-41.99 515.64L-71.78 831.44" stroke="rgba(203, 203, 203, 1)" stroke-width="1.5"></path><path d="M-41.99 515.64L43.21 835.53" stroke="rgba(203, 203, 203, 1)" stroke-width="1.5"></path><path d="M-58.41 704.08L-58.41 704.08" stroke="rgba(203, 203, 203, 1)" stroke-width="1.5"></path><path d="M-58.41 704.08L-71.78 831.44" stroke="rgba(203, 203, 203, 1)" stroke-width="1.5"></path><path d="M-58.41 704.08L81.42 700.56" stroke="rgba(203, 203, 203, 1)" stroke-width="1.5"></path><path d="M-58.41 704.08L43.21 835.53" stroke="rgba(203, 203, 203, 1)" stroke-width="1.5"></path><path d="M-71.78 831.44L-71.78 831.44" stroke="rgba(203, 203, 203, 1)" stroke-width="1.5"></path><path d="M-71.78 831.44L43.21 835.53" stroke="rgba(203, 203, 203, 1)" stroke-width="1.5"></path><path d="M-71.78 831.44L81.42 700.56" stroke="rgba(203, 203, 203, 1)" stroke-width="1.5"></path><path d="M96.94 536.14L96.94 536.14" stroke="rgba(203, 203, 203, 1)" stroke-width="1.5"></path><path d="M96.94 536.14L228.25 504.42" stroke="rgba(203, 203, 203, 1)" stroke-width="1.5"></path><path d="M96.94 536.14L81.42 700.56" stroke="rgba(203, 203, 203, 1)" stroke-width="1.5"></path><path d="M96.94 536.14L256.36 691.71" stroke="rgba(203, 203, 203, 1)" stroke-width="1.5"></path><path d="M81.42 700.56L81.42 700.56" stroke="rgba(203, 203, 203, 1)" stroke-width="1.5"></path><path d="M81.42 700.56L43.21 835.53" stroke="rgba(203, 203, 203, 1)" stroke-width="1.5"></path><path d="M81.42 700.56L256.36 691.71" stroke="rgba(203, 203, 203, 1)" stroke-width="1.5"></path><path d="M81.42 700.56L193.49 837.78" stroke="rgba(203, 203, 203, 1)" stroke-width="1.5"></path><path d="M43.21 835.53L43.21 835.53" stroke="rgba(203, 203, 203, 1)" stroke-width="1.5"></path><path d="M43.21 835.53L193.49 837.78" stroke="rgba(203, 203, 203, 1)" stroke-width="1.5"></path><path d="M43.21 835.53L256.36 691.71" stroke="rgba(203, 203, 203, 1)" stroke-width="1.5"></path><path d="M43.21 835.53L96.94 536.14" stroke="rgba(203, 203, 203, 1)" stroke-width="1.5"></path><path d="M228.25 504.42L228.25 504.42" stroke="rgba(203, 203, 203, 1)" stroke-width="1.5"></path><path d="M228.25 504.42L396.41 511.07" stroke="rgba(203, 203, 203, 1)" stroke-width="1.5"></path><path d="M228.25 504.42L256.36 691.71" stroke="rgba(203, 203, 203, 1)" stroke-width="1.5"></path><path d="M228.25 504.42L81.42 700.56" stroke="rgba(203, 203, 203, 1)" stroke-width="1.5"></path><path d="M256.36 691.71L256.36 691.71" stroke="rgba(203, 203, 203, 1)" stroke-width="1.5"></path><path d="M256.36 691.71L381.84 695.42" stroke="rgba(203, 203, 203, 1)" stroke-width="1.5"></path><path d="M256.36 691.71L193.49 837.78" stroke="rgba(203, 203, 203, 1)" stroke-width="1.5"></path><path d="M256.36 691.71L396.41 511.07" stroke="rgba(203, 203, 203, 1)" stroke-width="1.5"></path><path d="M193.49 837.78L193.49 837.78" stroke="rgba(203, 203, 203, 1)" stroke-width="1.5"></path><path d="M396.41 511.07L396.41 511.07" stroke="rgba(203, 203, 203, 1)" stroke-width="1.5"></path><path d="M396.41 511.07L556.48 493.56" stroke="rgba(203, 203, 203, 1)" stroke-width="1.5"></path><path d="M396.41 511.07L526.7 396.92" stroke="rgba(203, 203, 203, 1)" stroke-width="1.5"></path><path d="M396.41 511.07L381.84 695.42" stroke="rgba(203, 203, 203, 1)" stroke-width="1.5"></path><path d="M396.41 511.07L554.98 658.81" stroke="rgba(203, 203, 203, 1)" stroke-width="1.5"></path><path d="M381.84 695.42L381.84 695.42" stroke="rgba(203, 203, 203, 1)" stroke-width="1.5"></path><path d="M381.84 695.42L554.98 658.81" stroke="rgba(203, 203, 203, 1)" stroke-width="1.5"></path><path d="M381.84 695.42L538.62 789.96" stroke="rgba(203, 203, 203, 1)" stroke-width="1.5"></path><path d="M381.84 695.42L193.49 837.78" stroke="rgba(203, 203, 203, 1)" stroke-width="1.5"></path><path d="M526.7 396.92L526.7 396.92" stroke="rgba(203, 203, 203, 1)" stroke-width="1.5"></path><path d="M526.7 396.92L556.48 493.56" stroke="rgba(203, 203, 203, 1)" stroke-width="1.5"></path><path d="M526.7 396.92L693.64 362.52" stroke="rgba(203, 203, 203, 1)" stroke-width="1.5"></path><path d="M526.7 396.92L686.05 536.21" stroke="rgba(203, 203, 203, 1)" stroke-width="1.5"></path><path d="M556.48 493.56L556.48 493.56" stroke="rgba(203, 203, 203, 1)" stroke-width="1.5"></path><path d="M556.48 493.56L686.05 536.21" stroke="rgba(203, 203, 203, 1)" stroke-width="1.5"></path><path d="M556.48 493.56L554.98 658.81" stroke="rgba(203, 203, 203, 1)" stroke-width="1.5"></path><path d="M554.98 658.81L554.98 658.81" stroke="rgba(203, 203, 203, 1)" stroke-width="1.5"></path><path d="M554.98 658.81L646.3 669.6" stroke="rgba(203, 203, 203, 1)" stroke-width="1.5"></path><path d="M554.98 658.81L538.62 789.96" stroke="rgba(203, 203, 203, 1)" stroke-width="1.5"></path><path d="M538.62 789.96L538.62 789.96" stroke="rgba(203, 203, 203, 1)" stroke-width="1.5"></path><path d="M538.62 789.96L677.75 860.41" stroke="rgba(203, 203, 203, 1)" stroke-width="1.5"></path><path d="M693.64 362.52L693.64 362.52" stroke="rgba(203, 203, 203, 1)" stroke-width="1.5"></path><path d="M693.64 362.52L819.69 261.62" stroke="rgba(203, 203, 203, 1)" stroke-width="1.5"></path><path d="M693.64 362.52L856.36 356.07" stroke="rgba(203, 203, 203, 1)" stroke-width="1.5"></path><path d="M686.05 536.21L686.05 536.21" stroke="rgba(203, 203, 203, 1)" stroke-width="1.5"></path><path d="M686.05 536.21L809.15 558.95" stroke="rgba(203, 203, 203, 1)" stroke-width="1.5"></path><path d="M646.3 669.6L646.3 669.6" stroke="rgba(203, 203, 203, 1)" stroke-width="1.5"></path><path d="M646.3 669.6L686.05 536.21" stroke="rgba(203, 203, 203, 1)" stroke-width="1.5"></path><path d="M646.3 669.6L789.6 666.99" stroke="rgba(203, 203, 203, 1)" stroke-width="1.5"></path><path d="M677.75 860.41L677.75 860.41" stroke="rgba(203, 203, 203, 1)" stroke-width="1.5"></path><path d="M677.75 860.41L850.44 792.29" stroke="rgba(203, 203, 203, 1)" stroke-width="1.5"></path><path d="M677.75 860.41L646.3 669.6" stroke="rgba(203, 203, 203, 1)" stroke-width="1.5"></path><path d="M819.69 261.62L819.69 261.62" stroke="rgba(203, 203, 203, 1)" stroke-width="1.5"></path><path d="M819.69 261.62L856.36 356.07" stroke="rgba(203, 203, 203, 1)" stroke-width="1.5"></path><path d="M819.69 261.62L949.79 404.23" stroke="rgba(203, 203, 203, 1)" stroke-width="1.5"></path><path d="M819.69 261.62L1005.78 89.89" stroke="rgba(203, 203, 203, 1)" stroke-width="1.5"></path><path d="M856.36 356.07L856.36 356.07" stroke="rgba(203, 203, 203, 1)" stroke-width="1.5"></path><path d="M856.36 356.07L949.79 404.23" stroke="rgba(203, 203, 203, 1)" stroke-width="1.5"></path><path d="M856.36 356.07L970.19 488.97" stroke="rgba(203, 203, 203, 1)" stroke-width="1.5"></path><path d="M856.36 356.07L809.15 558.95" stroke="rgba(203, 203, 203, 1)" stroke-width="1.5"></path><path d="M809.15 558.95L809.15 558.95" stroke="rgba(203, 203, 203, 1)" stroke-width="1.5"></path><path d="M809.15 558.95L789.6 666.99" stroke="rgba(203, 203, 203, 1)" stroke-width="1.5"></path><path d="M809.15 558.95L970.19 488.97" stroke="rgba(203, 203, 203, 1)" stroke-width="1.5"></path><path d="M809.15 558.95L646.3 669.6" stroke="rgba(203, 203, 203, 1)" stroke-width="1.5"></path><path d="M789.6 666.99L789.6 666.99" stroke="rgba(203, 203, 203, 1)" stroke-width="1.5"></path><path d="M789.6 666.99L850.44 792.29" stroke="rgba(203, 203, 203, 1)" stroke-width="1.5"></path><path d="M789.6 666.99L686.05 536.21" stroke="rgba(203, 203, 203, 1)" stroke-width="1.5"></path><path d="M789.6 666.99L677.75 860.41" stroke="rgba(203, 203, 203, 1)" stroke-width="1.5"></path><path d="M850.44 792.29L850.44 792.29" stroke="rgba(203, 203, 203, 1)" stroke-width="1.5"></path><path d="M850.44 792.29L986.57 798.37" stroke="rgba(203, 203, 203, 1)" stroke-width="1.5"></path><path d="M850.44 792.29L809.15 558.95" stroke="rgba(203, 203, 203, 1)" stroke-width="1.5"></path><path d="M850.44 792.29L646.3 669.6" stroke="rgba(203, 203, 203, 1)" stroke-width="1.5"></path><path d="M850.44 792.29L686.05 536.21" stroke="rgba(203, 203, 203, 1)" stroke-width="1.5"></path><path d="M1008.99 -43.87L1008.99 -43.87" stroke="rgba(203, 203, 203, 1)" stroke-width="1.5"></path><path d="M1008.99 -43.87L1005.78 89.89" stroke="rgba(203, 203, 203, 1)" stroke-width="1.5"></path><path d="M1008.99 -43.87L1156.35 -47.33" stroke="rgba(203, 203, 203, 1)" stroke-width="1.5"></path><path d="M1008.99 -43.87L1102.91 87.5" stroke="rgba(203, 203, 203, 1)" stroke-width="1.5"></path><path d="M1008.99 -43.87L1243.35 -102.42" stroke="rgba(203, 203, 203, 1)" stroke-width="1.5"></path><path d="M1008.99 -43.87L1140.24 243.29" stroke="rgba(203, 203, 203, 1)" stroke-width="1.5"></path><path d="M1008.99 -43.87L1297.88 101.86" stroke="rgba(203, 203, 203, 1)" stroke-width="1.5"></path><path d="M1005.78 89.89L1005.78 89.89" stroke="rgba(203, 203, 203, 1)" stroke-width="1.5"></path><path d="M1005.78 89.89L1102.91 87.5" stroke="rgba(203, 203, 203, 1)" stroke-width="1.5"></path><path d="M1005.78 89.89L1156.35 -47.33" stroke="rgba(203, 203, 203, 1)" stroke-width="1.5"></path><path d="M1005.78 89.89L1140.24 243.29" stroke="rgba(203, 203, 203, 1)" stroke-width="1.5"></path><path d="M949.79 404.23L949.79 404.23" stroke="rgba(203, 203, 203, 1)" stroke-width="1.5"></path><path d="M949.79 404.23L970.19 488.97" stroke="rgba(203, 203, 203, 1)" stroke-width="1.5"></path><path d="M949.79 404.23L1134.12 391.57" stroke="rgba(203, 203, 203, 1)" stroke-width="1.5"></path><path d="M970.19 488.97L970.19 488.97" stroke="rgba(203, 203, 203, 1)" stroke-width="1.5"></path><path d="M970.19 488.97L1134.12 391.57" stroke="rgba(203, 203, 203, 1)" stroke-width="1.5"></path><path d="M970.19 488.97L1162.38 494.8" stroke="rgba(203, 203, 203, 1)" stroke-width="1.5"></path><path d="M970.19 488.97L789.6 666.99" stroke="rgba(203, 203, 203, 1)" stroke-width="1.5"></path><path d="M986.57 798.37L986.57 798.37" stroke="rgba(203, 203, 203, 1)" stroke-width="1.5"></path><path d="M986.57 798.37L1159.81 825.62" stroke="rgba(203, 203, 203, 1)" stroke-width="1.5"></path><path d="M986.57 798.37L1160.26 692.06" stroke="rgba(203, 203, 203, 1)" stroke-width="1.5"></path><path d="M986.57 798.37L789.6 666.99" stroke="rgba(203, 203, 203, 1)" stroke-width="1.5"></path><path d="M986.57 798.37L809.15 558.95" stroke="rgba(203, 203, 203, 1)" stroke-width="1.5"></path><path d="M986.57 798.37L970.19 488.97" stroke="rgba(203, 203, 203, 1)" stroke-width="1.5"></path><path d="M1156.35 -47.33L1156.35 -47.33" stroke="rgba(203, 203, 203, 1)" stroke-width="1.5"></path><path d="M1156.35 -47.33L1243.35 -102.42" stroke="rgba(203, 203, 203, 1)" stroke-width="1.5"></path><path d="M1156.35 -47.33L1102.91 87.5" stroke="rgba(203, 203, 203, 1)" stroke-width="1.5"></path><path d="M1102.91 87.5L1102.91 87.5" stroke="rgba(203, 203, 203, 1)" stroke-width="1.5"></path><path d="M1140.24 243.29L1140.24 243.29" stroke="rgba(203, 203, 203, 1)" stroke-width="1.5"></path><path d="M1140.24 243.29L1239.76 218.08" stroke="rgba(203, 203, 203, 1)" stroke-width="1.5"></path><path d="M1140.24 243.29L1134.12 391.57" stroke="rgba(203, 203, 203, 1)" stroke-width="1.5"></path><path d="M1140.24 243.29L1102.91 87.5" stroke="rgba(203, 203, 203, 1)" stroke-width="1.5"></path><path d="M1134.12 391.57L1134.12 391.57" stroke="rgba(203, 203, 203, 1)" stroke-width="1.5"></path><path d="M1134.12 391.57L1162.38 494.8" stroke="rgba(203, 203, 203, 1)" stroke-width="1.5"></path><path d="M1134.12 391.57L1287.95 368.91" stroke="rgba(203, 203, 203, 1)" stroke-width="1.5"></path><path d="M1134.12 391.57L1239.76 218.08" stroke="rgba(203, 203, 203, 1)" stroke-width="1.5"></path><path d="M1162.38 494.8L1162.38 494.8" stroke="rgba(203, 203, 203, 1)" stroke-width="1.5"></path><path d="M1160.26 692.06L1160.26 692.06" stroke="rgba(203, 203, 203, 1)" stroke-width="1.5"></path><path d="M1160.26 692.06L1159.81 825.62" stroke="rgba(203, 203, 203, 1)" stroke-width="1.5"></path><path d="M1160.26 692.06L1162.38 494.8" stroke="rgba(203, 203, 203, 1)" stroke-width="1.5"></path><path d="M1159.81 825.62L1159.81 825.62" stroke="rgba(203, 203, 203, 1)" stroke-width="1.5"></path><path d="M1159.81 825.62L1304.77 852.49" stroke="rgba(203, 203, 203, 1)" stroke-width="1.5"></path><path d="M1159.81 825.62L1393.57 801.28" stroke="rgba(203, 203, 203, 1)" stroke-width="1.5"></path><path d="M1159.81 825.62L850.44 792.29" stroke="rgba(203, 203, 203, 1)" stroke-width="1.5"></path><path d="M1159.81 825.62L1443.12 680.84" stroke="rgba(203, 203, 203, 1)" stroke-width="1.5"></path><path d="M1243.35 -102.42L1243.35 -102.42" stroke="rgba(203, 203, 203, 1)" stroke-width="1.5"></path><path d="M1243.35 -102.42L1390.98 -83.75" stroke="rgba(203, 203, 203, 1)" stroke-width="1.5"></path><path d="M1243.35 -102.42L1297.88 101.86" stroke="rgba(203, 203, 203, 1)" stroke-width="1.5"></path><path d="M1243.35 -102.42L1102.91 87.5" stroke="rgba(203, 203, 203, 1)" stroke-width="1.5"></path><path d="M1243.35 -102.42L1417.08 103.39" stroke="rgba(203, 203, 203, 1)" stroke-width="1.5"></path><path d="M1297.88 101.86L1297.88 101.86" stroke="rgba(203, 203, 203, 1)" stroke-width="1.5"></path><path d="M1297.88 101.86L1417.08 103.39" stroke="rgba(203, 203, 203, 1)" stroke-width="1.5"></path><path d="M1297.88 101.86L1239.76 218.08" stroke="rgba(203, 203, 203, 1)" stroke-width="1.5"></path><path d="M1297.88 101.86L1441.11 223.12" stroke="rgba(203, 203, 203, 1)" stroke-width="1.5"></path><path d="M1239.76 218.08L1239.76 218.08" stroke="rgba(203, 203, 203, 1)" stroke-width="1.5"></path><path d="M1239.76 218.08L1287.95 368.91" stroke="rgba(203, 203, 203, 1)" stroke-width="1.5"></path><path d="M1239.76 218.08L1102.91 87.5" stroke="rgba(203, 203, 203, 1)" stroke-width="1.5"></path><path d="M1239.76 218.08L1441.11 223.12" stroke="rgba(203, 203, 203, 1)" stroke-width="1.5"></path><path d="M1287.95 368.91L1287.95 368.91" stroke="rgba(203, 203, 203, 1)" stroke-width="1.5"></path><path d="M1287.95 368.91L1443.24 377.73" stroke="rgba(203, 203, 203, 1)" stroke-width="1.5"></path><path d="M1304.77 852.49L1304.77 852.49" stroke="rgba(203, 203, 203, 1)" stroke-width="1.5"></path><path d="M1304.77 852.49L1393.57 801.28" stroke="rgba(203, 203, 203, 1)" stroke-width="1.5"></path><path d="M1390.98 -83.75L1390.98 -83.75" stroke="rgba(203, 203, 203, 1)" stroke-width="1.5"></path><path d="M1390.98 -83.75L1417.08 103.39" stroke="rgba(203, 203, 203, 1)" stroke-width="1.5"></path><path d="M1390.98 -83.75L1588.16 -83.25" stroke="rgba(203, 203, 203, 1)" stroke-width="1.5"></path><path d="M1390.98 -83.75L1297.88 101.86" stroke="rgba(203, 203, 203, 1)" stroke-width="1.5"></path><path d="M1390.98 -83.75L1539.12 94.8" stroke="rgba(203, 203, 203, 1)" stroke-width="1.5"></path><path d="M1417.08 103.39L1417.08 103.39" stroke="rgba(203, 203, 203, 1)" stroke-width="1.5"></path><path d="M1417.08 103.39L1441.11 223.12" stroke="rgba(203, 203, 203, 1)" stroke-width="1.5"></path><path d="M1417.08 103.39L1539.12 94.8" stroke="rgba(203, 203, 203, 1)" stroke-width="1.5"></path><path d="M1417.08 103.39L1558.91 258.13" stroke="rgba(203, 203, 203, 1)" stroke-width="1.5"></path><path d="M1417.08 103.39L1239.76 218.08" stroke="rgba(203, 203, 203, 1)" stroke-width="1.5"></path><path d="M1441.11 223.12L1441.11 223.12" stroke="rgba(203, 203, 203, 1)" stroke-width="1.5"></path><path d="M1441.11 223.12L1558.91 258.13" stroke="rgba(203, 203, 203, 1)" stroke-width="1.5"></path><path d="M1441.11 223.12L1443.24 377.73" stroke="rgba(203, 203, 203, 1)" stroke-width="1.5"></path><path d="M1441.11 223.12L1539.12 94.8" stroke="rgba(203, 203, 203, 1)" stroke-width="1.5"></path><path d="M1441.11 223.12L1541.48 372.71" stroke="rgba(203, 203, 203, 1)" stroke-width="1.5"></path><path d="M1443.24 377.73L1443.24 377.73" stroke="rgba(203, 203, 203, 1)" stroke-width="1.5"></path><path d="M1443.24 377.73L1541.48 372.71" stroke="rgba(203, 203, 203, 1)" stroke-width="1.5"></path><path d="M1443.24 377.73L1454.43 523.23" stroke="rgba(203, 203, 203, 1)" stroke-width="1.5"></path><path d="M1454.43 523.23L1454.43 523.23" stroke="rgba(203, 203, 203, 1)" stroke-width="1.5"></path><path d="M1454.43 523.23L1576.16 560.61" stroke="rgba(203, 203, 203, 1)" stroke-width="1.5"></path><path d="M1454.43 523.23L1443.12 680.84" stroke="rgba(203, 203, 203, 1)" stroke-width="1.5"></path><path d="M1454.43 523.23L1542.77 670.03" stroke="rgba(203, 203, 203, 1)" stroke-width="1.5"></path><path d="M1454.43 523.23L1541.48 372.71" stroke="rgba(203, 203, 203, 1)" stroke-width="1.5"></path><path d="M1443.12 680.84L1443.12 680.84" stroke="rgba(203, 203, 203, 1)" stroke-width="1.5"></path><path d="M1443.12 680.84L1542.77 670.03" stroke="rgba(203, 203, 203, 1)" stroke-width="1.5"></path><path d="M1443.12 680.84L1393.57 801.28" stroke="rgba(203, 203, 203, 1)" stroke-width="1.5"></path><path d="M1443.12 680.84L1576.16 560.61" stroke="rgba(203, 203, 203, 1)" stroke-width="1.5"></path><path d="M1443.12 680.84L1304.77 852.49" stroke="rgba(203, 203, 203, 1)" stroke-width="1.5"></path><path d="M1443.12 680.84L1595.26 844.5" stroke="rgba(203, 203, 203, 1)" stroke-width="1.5"></path><path d="M1393.57 801.28L1393.57 801.28" stroke="rgba(203, 203, 203, 1)" stroke-width="1.5"></path><path d="M1393.57 801.28L1542.77 670.03" stroke="rgba(203, 203, 203, 1)" stroke-width="1.5"></path><path d="M1588.16 -83.25L1588.16 -83.25" stroke="rgba(203, 203, 203, 1)" stroke-width="1.5"></path><path d="M1588.16 -83.25L1539.12 94.8" stroke="rgba(203, 203, 203, 1)" stroke-width="1.5"></path><path d="M1588.16 -83.25L1417.08 103.39" stroke="rgba(203, 203, 203, 1)" stroke-width="1.5"></path><path d="M1539.12 94.8L1539.12 94.8" stroke="rgba(203, 203, 203, 1)" stroke-width="1.5"></path><path d="M1558.91 258.13L1558.91 258.13" stroke="rgba(203, 203, 203, 1)" stroke-width="1.5"></path><path d="M1558.91 258.13L1541.48 372.71" stroke="rgba(203, 203, 203, 1)" stroke-width="1.5"></path><path d="M1558.91 258.13L1539.12 94.8" stroke="rgba(203, 203, 203, 1)" stroke-width="1.5"></path><path d="M1558.91 258.13L1443.24 377.73" stroke="rgba(203, 203, 203, 1)" stroke-width="1.5"></path><path d="M1541.48 372.71L1541.48 372.71" stroke="rgba(203, 203, 203, 1)" stroke-width="1.5"></path><path d="M1541.48 372.71L1576.16 560.61" stroke="rgba(203, 203, 203, 1)" stroke-width="1.5"></path><path d="M1576.16 560.61L1576.16 560.61" stroke="rgba(203, 203, 203, 1)" stroke-width="1.5"></path><path d="M1576.16 560.61L1542.77 670.03" stroke="rgba(203, 203, 203, 1)" stroke-width="1.5"></path><path d="M1576.16 560.61L1443.24 377.73" stroke="rgba(203, 203, 203, 1)" stroke-width="1.5"></path><path d="M1576.16 560.61L1595.26 844.5" stroke="rgba(203, 203, 203, 1)" stroke-width="1.5"></path><path d="M1542.77 670.03L1542.77 670.03" stroke="rgba(203, 203, 203, 1)" stroke-width="1.5"></path><path d="M1542.77 670.03L1595.26 844.5" stroke="rgba(203, 203, 203, 1)" stroke-width="1.5"></path><path d="M1595.26 844.5L1595.26 844.5" stroke="rgba(203, 203, 203, 1)" stroke-width="1.5"></path><path d="M1595.26 844.5L1393.57 801.28" stroke="rgba(203, 203, 203, 1)" stroke-width="1.5"></path><circle r="5" cx="-41.99" cy="515.64" fill="rgba(203, 203, 203, 1)"></circle><circle r="5" cx="-58.41" cy="704.08" fill="rgba(203, 203, 203, 1)"></circle><circle r="5" cx="-71.78" cy="831.44" fill="rgba(203, 203, 203, 1)"></circle><circle r="5" cx="96.94" cy="536.14" fill="rgba(203, 203, 203, 1)"></circle><circle r="5" cx="81.42" cy="700.56" fill="rgba(203, 203, 203, 1)"></circle><circle r="5" cx="43.21" cy="835.53" fill="rgba(203, 203, 203, 1)"></circle><circle r="5" cx="228.25" cy="504.42" fill="rgba(203, 203, 203, 1)"></circle><circle r="5" cx="256.36" cy="691.71" fill="rgba(203, 203, 203, 1)"></circle><circle r="5" cx="193.49" cy="837.78" fill="rgba(203, 203, 203, 1)"></circle><circle r="5" cx="396.41" cy="511.07" fill="rgba(203, 203, 203, 1)"></circle><circle r="5" cx="381.84" cy="695.42" fill="rgba(203, 203, 203, 1)"></circle><circle r="5" cx="526.7" cy="396.92" fill="rgba(203, 203, 203, 1)"></circle><circle r="5" cx="556.48" cy="493.56" fill="rgba(203, 203, 203, 1)"></circle><circle r="5" cx="554.98" cy="658.81" fill="rgba(203, 203, 203, 1)"></circle><circle r="5" cx="538.62" cy="789.96" fill="rgba(203, 203, 203, 1)"></circle><circle r="5" cx="693.64" cy="362.52" fill="rgba(203, 203, 203, 1)"></circle><circle r="5" cx="686.05" cy="536.21" fill="rgba(203, 203, 203, 1)"></circle><circle r="5" cx="646.3" cy="669.6" fill="rgba(203, 203, 203, 1)"></circle><circle r="5" cx="677.75" cy="860.41" fill="rgba(203, 203, 203, 1)"></circle><circle r="5" cx="819.69" cy="261.62" fill="rgba(203, 203, 203, 1)"></circle><circle r="5" cx="856.36" cy="356.07" fill="rgba(203, 203, 203, 1)"></circle><circle r="5" cx="809.15" cy="558.95" fill="rgba(203, 203, 203, 1)"></circle><circle r="5" cx="789.6" cy="666.99" fill="rgba(203, 203, 203, 1)"></circle><circle r="5" cx="850.44" cy="792.29" fill="rgba(203, 203, 203, 1)"></circle><circle r="5" cx="1008.99" cy="-43.87" fill="rgba(203, 203, 203, 1)"></circle><circle r="5" cx="1005.78" cy="89.89" fill="rgba(203, 203, 203, 1)"></circle><circle r="5" cx="949.79" cy="404.23" fill="rgba(203, 203, 203, 1)"></circle><circle r="5" cx="970.19" cy="488.97" fill="rgba(203, 203, 203, 1)"></circle><circle r="5" cx="986.57" cy="798.37" fill="rgba(203, 203, 203, 1)"></circle><circle r="5" cx="1156.35" cy="-47.33" fill="rgba(203, 203, 203, 1)"></circle><circle r="5" cx="1102.91" cy="87.5" fill="rgba(203, 203, 203, 1)"></circle><circle r="5" cx="1140.24" cy="243.29" fill="rgba(203, 203, 203, 1)"></circle><circle r="5" cx="1134.12" cy="391.57" fill="rgba(203, 203, 203, 1)"></circle><circle r="5" cx="1162.38" cy="494.8" fill="rgba(203, 203, 203, 1)"></circle><circle r="5" cx="1160.26" cy="692.06" fill="rgba(203, 203, 203, 1)"></circle><circle r="5" cx="1159.81" cy="825.62" fill="rgba(203, 203, 203, 1)"></circle><circle r="5" cx="1243.35" cy="-102.42" fill="rgba(203, 203, 203, 1)"></circle><circle r="5" cx="1297.88" cy="101.86" fill="rgba(203, 203, 203, 1)"></circle><circle r="5" cx="1239.76" cy="218.08" fill="rgba(203, 203, 203, 1)"></circle><circle r="5" cx="1287.95" cy="368.91" fill="rgba(203, 203, 203, 1)"></circle><circle r="5" cx="1304.77" cy="852.49" fill="rgba(203, 203, 203, 1)"></circle><circle r="5" cx="1390.98" cy="-83.75" fill="rgba(203, 203, 203, 1)"></circle><circle r="5" cx="1417.08" cy="103.39" fill="rgba(203, 203, 203, 1)"></circle><circle r="5" cx="1441.11" cy="223.12" fill="rgba(203, 203, 203, 1)"></circle><circle r="5" cx="1443.24" cy="377.73" fill="rgba(203, 203, 203, 1)"></circle><circle r="5" cx="1454.43" cy="523.23" fill="rgba(203, 203, 203, 1)"></circle><circle r="5" cx="1443.12" cy="680.84" fill="rgba(203, 203, 203, 1)"></circle><circle r="5" cx="1393.57" cy="801.28" fill="rgba(203, 203, 203, 1)"></circle><circle r="5" cx="1588.16" cy="-83.25" fill="rgba(203, 203, 203, 1)"></circle><circle r="5" cx="1539.12" cy="94.8" fill="rgba(203, 203, 203, 1)"></circle><circle r="5" cx="1558.91" cy="258.13" fill="rgba(203, 203, 203, 1)"></circle><circle r="5" cx="1541.48" cy="372.71" fill="rgba(203, 203, 203, 1)"></circle><circle r="5" cx="1576.16" cy="560.61" fill="rgba(203, 203, 203, 1)"></circle><circle r="5" cx="1542.77" cy="670.03" fill="rgba(203, 203, 203, 1)"></circle><circle r="5" cx="1595.26" cy="844.5" fill="rgba(203, 203, 203, 1)"></circle><path d="M391.5 676.48L391.5 676.48" stroke="hsl(0, 0%, 0%)" stroke-width="1.5"></path><path d="M391.5 676.48L537.75 653.03" stroke="hsl(0, 0%, 0%)" stroke-width="1.5"></path><path d="M391.5 676.48L394.75 836.94" stroke="hsl(0, 0%, 0%)" stroke-width="1.5"></path><path d="M537.75 653.03L537.75 653.03" stroke="hsl(0, 0%, 0%)" stroke-width="1.5"></path><path d="M537.75 653.03L655.29 661.33" stroke="hsl(0, 0%, 0%)" stroke-width="1.5"></path><path d="M537.75 653.03L555.86 533.57" stroke="hsl(0, 0%, 0%)" stroke-width="1.5"></path><path d="M537.75 653.03L550.25 826.96" stroke="hsl(0, 0%, 0%)" stroke-width="1.5"></path><path d="M1437.23 211.56L1437.23 211.56" stroke="hsl(0, 0%, 0%)" stroke-width="1.5"></path><path d="M1437.23 211.56L1455.91 57.48" stroke="hsl(0, 0%, 0%)" stroke-width="1.5"></path><path d="M1437.23 211.56L1449.98 367.56" stroke="hsl(0, 0%, 0%)" stroke-width="1.5"></path><path d="M1437.23 211.56L1603.03 239.61" stroke="hsl(0, 0%, 0%)" stroke-width="1.5"></path><path d="M1573.24 792.78L1573.24 792.78" stroke="hsl(0, 0%, 0%)" stroke-width="1.5"></path><path d="M1573.24 792.78L1399.26 860.52" stroke="hsl(0, 0%, 0%)" stroke-width="1.5"></path><path d="M1573.24 792.78L1392 702.94" stroke="hsl(0, 0%, 0%)" stroke-width="1.5"></path><path d="M1573.24 792.78L1452.61 556.97" stroke="hsl(0, 0%, 0%)" stroke-width="1.5"></path><path d="M-99.4 653.71L-99.4 653.71" stroke="hsl(0, 0%, 0%)" stroke-width="1.5"></path><path d="M-99.4 653.71L65.19 699.63" stroke="hsl(0, 0%, 0%)" stroke-width="1.5"></path><path d="M-99.4 653.71L-54.57 856.69" stroke="hsl(0, 0%, 0%)" stroke-width="1.5"></path><path d="M-99.4 653.71L102.12 793.81" stroke="hsl(0, 0%, 0%)" stroke-width="1.5"></path><path d="M-99.4 653.71L223.4 707.11" stroke="hsl(0, 0%, 0%)" stroke-width="1.5"></path><path d="M-54.57 856.69L-54.57 856.69" stroke="hsl(0, 0%, 0%)" stroke-width="1.5"></path><path d="M-54.57 856.69L102.12 793.81" stroke="hsl(0, 0%, 0%)" stroke-width="1.5"></path><path d="M65.19 699.63L65.19 699.63" stroke="hsl(0, 0%, 0%)" stroke-width="1.5"></path><path d="M65.19 699.63L102.12 793.81" stroke="hsl(0, 0%, 0%)" stroke-width="1.5"></path><path d="M65.19 699.63L223.4 707.11" stroke="hsl(0, 0%, 0%)" stroke-width="1.5"></path><path d="M102.12 793.81L102.12 793.81" stroke="hsl(0, 0%, 0%)" stroke-width="1.5"></path><path d="M102.12 793.81L235.3 852.51" stroke="hsl(0, 0%, 0%)" stroke-width="1.5"></path><path d="M102.12 793.81L223.4 707.11" stroke="hsl(0, 0%, 0%)" stroke-width="1.5"></path><path d="M102.12 793.81L394.75 836.94" stroke="hsl(0, 0%, 0%)" stroke-width="1.5"></path><path d="M223.4 707.11L223.4 707.11" stroke="hsl(0, 0%, 0%)" stroke-width="1.5"></path><path d="M223.4 707.11L235.3 852.51" stroke="hsl(0, 0%, 0%)" stroke-width="1.5"></path><path d="M235.3 852.51L235.3 852.51" stroke="hsl(0, 0%, 0%)" stroke-width="1.5"></path><path d="M394.75 836.94L394.75 836.94" stroke="hsl(0, 0%, 0%)" stroke-width="1.5"></path><path d="M394.75 836.94L550.25 826.96" stroke="hsl(0, 0%, 0%)" stroke-width="1.5"></path><path d="M394.75 836.94L235.3 852.51" stroke="hsl(0, 0%, 0%)" stroke-width="1.5"></path><path d="M555.86 533.57L555.86 533.57" stroke="hsl(0, 0%, 0%)" stroke-width="1.5"></path><path d="M555.86 533.57L696.43 487.57" stroke="hsl(0, 0%, 0%)" stroke-width="1.5"></path><path d="M555.86 533.57L655.29 661.33" stroke="hsl(0, 0%, 0%)" stroke-width="1.5"></path><path d="M555.86 533.57L391.5 676.48" stroke="hsl(0, 0%, 0%)" stroke-width="1.5"></path><path d="M555.86 533.57L842.04 540.61" stroke="hsl(0, 0%, 0%)" stroke-width="1.5"></path><path d="M550.25 826.96L550.25 826.96" stroke="hsl(0, 0%, 0%)" stroke-width="1.5"></path><path d="M550.25 826.96L648.61 848.06" stroke="hsl(0, 0%, 0%)" stroke-width="1.5"></path><path d="M550.25 826.96L655.29 661.33" stroke="hsl(0, 0%, 0%)" stroke-width="1.5"></path><path d="M550.25 826.96L391.5 676.48" stroke="hsl(0, 0%, 0%)" stroke-width="1.5"></path><path d="M550.25 826.96L555.86 533.57" stroke="hsl(0, 0%, 0%)" stroke-width="1.5"></path><path d="M696.43 487.57L696.43 487.57" stroke="hsl(0, 0%, 0%)" stroke-width="1.5"></path><path d="M696.43 487.57L842.04 540.61" stroke="hsl(0, 0%, 0%)" stroke-width="1.5"></path><path d="M696.43 487.57L655.29 661.33" stroke="hsl(0, 0%, 0%)" stroke-width="1.5"></path><path d="M696.43 487.57L826.98 671.02" stroke="hsl(0, 0%, 0%)" stroke-width="1.5"></path><path d="M696.43 487.57L537.75 653.03" stroke="hsl(0, 0%, 0%)" stroke-width="1.5"></path><path d="M696.43 487.57L966.67 545.76" stroke="hsl(0, 0%, 0%)" stroke-width="1.5"></path><path d="M655.29 661.33L655.29 661.33" stroke="hsl(0, 0%, 0%)" stroke-width="1.5"></path><path d="M648.61 848.06L648.61 848.06" stroke="hsl(0, 0%, 0%)" stroke-width="1.5"></path><path d="M648.61 848.06L655.29 661.33" stroke="hsl(0, 0%, 0%)" stroke-width="1.5"></path><path d="M842.04 540.61L842.04 540.61" stroke="hsl(0, 0%, 0%)" stroke-width="1.5"></path><path d="M842.04 540.61L966.67 545.76" stroke="hsl(0, 0%, 0%)" stroke-width="1.5"></path><path d="M842.04 540.61L826.98 671.02" stroke="hsl(0, 0%, 0%)" stroke-width="1.5"></path><path d="M842.04 540.61L938.73 669.85" stroke="hsl(0, 0%, 0%)" stroke-width="1.5"></path><path d="M842.04 540.61L655.29 661.33" stroke="hsl(0, 0%, 0%)" stroke-width="1.5"></path><path d="M842.04 540.61L1008.91 383.98" stroke="hsl(0, 0%, 0%)" stroke-width="1.5"></path><path d="M826.98 671.02L826.98 671.02" stroke="hsl(0, 0%, 0%)" stroke-width="1.5"></path><path d="M826.98 671.02L938.73 669.85" stroke="hsl(0, 0%, 0%)" stroke-width="1.5"></path><path d="M826.98 671.02L854.65 791.9" stroke="hsl(0, 0%, 0%)" stroke-width="1.5"></path><path d="M826.98 671.02L655.29 661.33" stroke="hsl(0, 0%, 0%)" stroke-width="1.5"></path><path d="M854.65 791.9L854.65 791.9" stroke="hsl(0, 0%, 0%)" stroke-width="1.5"></path><path d="M854.65 791.9L965.9 834.62" stroke="hsl(0, 0%, 0%)" stroke-width="1.5"></path><path d="M854.65 791.9L938.73 669.85" stroke="hsl(0, 0%, 0%)" stroke-width="1.5"></path><path d="M854.65 791.9L648.61 848.06" stroke="hsl(0, 0%, 0%)" stroke-width="1.5"></path><path d="M854.65 791.9L655.29 661.33" stroke="hsl(0, 0%, 0%)" stroke-width="1.5"></path><path d="M1008.91 383.98L1008.91 383.98" stroke="hsl(0, 0%, 0%)" stroke-width="1.5"></path><path d="M1008.91 383.98L1131.08 374.5" stroke="hsl(0, 0%, 0%)" stroke-width="1.5"></path><path d="M1008.91 383.98L966.67 545.76" stroke="hsl(0, 0%, 0%)" stroke-width="1.5"></path><path d="M966.67 545.76L966.67 545.76" stroke="hsl(0, 0%, 0%)" stroke-width="1.5"></path><path d="M966.67 545.76L938.73 669.85" stroke="hsl(0, 0%, 0%)" stroke-width="1.5"></path><path d="M966.67 545.76L1137.54 503.15" stroke="hsl(0, 0%, 0%)" stroke-width="1.5"></path><path d="M938.73 669.85L938.73 669.85" stroke="hsl(0, 0%, 0%)" stroke-width="1.5"></path><path d="M965.9 834.62L965.9 834.62" stroke="hsl(0, 0%, 0%)" stroke-width="1.5"></path><path d="M965.9 834.62L938.73 669.85" stroke="hsl(0, 0%, 0%)" stroke-width="1.5"></path><path d="M965.9 834.62L1136.92 855.54" stroke="hsl(0, 0%, 0%)" stroke-width="1.5"></path><path d="M1156.92 238.42L1156.92 238.42" stroke="hsl(0, 0%, 0%)" stroke-width="1.5"></path><path d="M1156.92 238.42L1248.2 206.64" stroke="hsl(0, 0%, 0%)" stroke-width="1.5"></path><path d="M1156.92 238.42L1131.08 374.5" stroke="hsl(0, 0%, 0%)" stroke-width="1.5"></path><path d="M1156.92 238.42L1008.91 383.98" stroke="hsl(0, 0%, 0%)" stroke-width="1.5"></path><path d="M1156.92 238.42L1275.84 409.87" stroke="hsl(0, 0%, 0%)" stroke-width="1.5"></path><path d="M1156.92 238.42L1248.13 42.76" stroke="hsl(0, 0%, 0%)" stroke-width="1.5"></path><path d="M1131.08 374.5L1131.08 374.5" stroke="hsl(0, 0%, 0%)" stroke-width="1.5"></path><path d="M1131.08 374.5L1137.54 503.15" stroke="hsl(0, 0%, 0%)" stroke-width="1.5"></path><path d="M1137.54 503.15L1137.54 503.15" stroke="hsl(0, 0%, 0%)" stroke-width="1.5"></path><path d="M1137.54 503.15L1283.8 519.74" stroke="hsl(0, 0%, 0%)" stroke-width="1.5"></path><path d="M1137.54 503.15L1275.84 409.87" stroke="hsl(0, 0%, 0%)" stroke-width="1.5"></path><path d="M1137.54 503.15L1008.91 383.98" stroke="hsl(0, 0%, 0%)" stroke-width="1.5"></path><path d="M1137.54 503.15L1265.29 637.68" stroke="hsl(0, 0%, 0%)" stroke-width="1.5"></path><path d="M1136.92 855.54L1136.92 855.54" stroke="hsl(0, 0%, 0%)" stroke-width="1.5"></path><path d="M1136.92 855.54L1303.33 834.04" stroke="hsl(0, 0%, 0%)" stroke-width="1.5"></path><path d="M1136.92 855.54L1265.29 637.68" stroke="hsl(0, 0%, 0%)" stroke-width="1.5"></path><path d="M1136.92 855.54L1399.26 860.52" stroke="hsl(0, 0%, 0%)" stroke-width="1.5"></path><path d="M1136.92 855.54L938.73 669.85" stroke="hsl(0, 0%, 0%)" stroke-width="1.5"></path><path d="M1136.92 855.54L854.65 791.9" stroke="hsl(0, 0%, 0%)" stroke-width="1.5"></path><path d="M1291.99 -62.7L1291.99 -62.7" stroke="hsl(0, 0%, 0%)" stroke-width="1.5"></path><path d="M1291.99 -62.7L1248.13 42.76" stroke="hsl(0, 0%, 0%)" stroke-width="1.5"></path><path d="M1291.99 -62.7L1443.24 -49.43" stroke="hsl(0, 0%, 0%)" stroke-width="1.5"></path><path d="M1291.99 -62.7L1455.91 57.48" stroke="hsl(0, 0%, 0%)" stroke-width="1.5"></path><path d="M1291.99 -62.7L1248.2 206.64" stroke="hsl(0, 0%, 0%)" stroke-width="1.5"></path><path d="M1291.99 -62.7L1570.25 -52.57" stroke="hsl(0, 0%, 0%)" stroke-width="1.5"></path><path d="M1248.13 42.76L1248.13 42.76" stroke="hsl(0, 0%, 0%)" stroke-width="1.5"></path><path d="M1248.13 42.76L1248.2 206.64" stroke="hsl(0, 0%, 0%)" stroke-width="1.5"></path><path d="M1248.13 42.76L1455.91 57.48" stroke="hsl(0, 0%, 0%)" stroke-width="1.5"></path><path d="M1248.13 42.76L1443.24 -49.43" stroke="hsl(0, 0%, 0%)" stroke-width="1.5"></path><path d="M1248.2 206.64L1248.2 206.64" stroke="hsl(0, 0%, 0%)" stroke-width="1.5"></path><path d="M1248.2 206.64L1437.23 211.56" stroke="hsl(0, 0%, 0%)" stroke-width="1.5"></path><path d="M1248.2 206.64L1131.08 374.5" stroke="hsl(0, 0%, 0%)" stroke-width="1.5"></path><path d="M1275.84 409.87L1275.84 409.87" stroke="hsl(0, 0%, 0%)" stroke-width="1.5"></path><path d="M1275.84 409.87L1283.8 519.74" stroke="hsl(0, 0%, 0%)" stroke-width="1.5"></path><path d="M1275.84 409.87L1131.08 374.5" stroke="hsl(0, 0%, 0%)" stroke-width="1.5"></path><path d="M1275.84 409.87L1449.98 367.56" stroke="hsl(0, 0%, 0%)" stroke-width="1.5"></path><path d="M1275.84 409.87L1248.2 206.64" stroke="hsl(0, 0%, 0%)" stroke-width="1.5"></path><path d="M1283.8 519.74L1283.8 519.74" stroke="hsl(0, 0%, 0%)" stroke-width="1.5"></path><path d="M1283.8 519.74L1265.29 637.68" stroke="hsl(0, 0%, 0%)" stroke-width="1.5"></path><path d="M1265.29 637.68L1265.29 637.68" stroke="hsl(0, 0%, 0%)" stroke-width="1.5"></path><path d="M1265.29 637.68L1392 702.94" stroke="hsl(0, 0%, 0%)" stroke-width="1.5"></path><path d="M1265.29 637.68L1303.33 834.04" stroke="hsl(0, 0%, 0%)" stroke-width="1.5"></path><path d="M1303.33 834.04L1303.33 834.04" stroke="hsl(0, 0%, 0%)" stroke-width="1.5"></path><path d="M1303.33 834.04L1399.26 860.52" stroke="hsl(0, 0%, 0%)" stroke-width="1.5"></path><path d="M1303.33 834.04L1392 702.94" stroke="hsl(0, 0%, 0%)" stroke-width="1.5"></path><path d="M1303.33 834.04L1573.24 792.78" stroke="hsl(0, 0%, 0%)" stroke-width="1.5"></path><path d="M1303.33 834.04L1452.61 556.97" stroke="hsl(0, 0%, 0%)" stroke-width="1.5"></path><path d="M1443.24 -49.43L1443.24 -49.43" stroke="hsl(0, 0%, 0%)" stroke-width="1.5"></path><path d="M1443.24 -49.43L1455.91 57.48" stroke="hsl(0, 0%, 0%)" stroke-width="1.5"></path><path d="M1443.24 -49.43L1570.25 -52.57" stroke="hsl(0, 0%, 0%)" stroke-width="1.5"></path><path d="M1455.91 57.48L1455.91 57.48" stroke="hsl(0, 0%, 0%)" stroke-width="1.5"></path><path d="M1455.91 57.48L1598.72 54.21" stroke="hsl(0, 0%, 0%)" stroke-width="1.5"></path><path d="M1455.91 57.48L1570.25 -52.57" stroke="hsl(0, 0%, 0%)" stroke-width="1.5"></path><path d="M1449.98 367.56L1449.98 367.56" stroke="hsl(0, 0%, 0%)" stroke-width="1.5"></path><path d="M1449.98 367.56L1452.61 556.97" stroke="hsl(0, 0%, 0%)" stroke-width="1.5"></path><path d="M1449.98 367.56L1603.57 488.12" stroke="hsl(0, 0%, 0%)" stroke-width="1.5"></path><path d="M1449.98 367.56L1603.03 239.61" stroke="hsl(0, 0%, 0%)" stroke-width="1.5"></path><path d="M1449.98 367.56L1283.8 519.74" stroke="hsl(0, 0%, 0%)" stroke-width="1.5"></path><path d="M1452.61 556.97L1452.61 556.97" stroke="hsl(0, 0%, 0%)" stroke-width="1.5"></path><path d="M1452.61 556.97L1392 702.94" stroke="hsl(0, 0%, 0%)" stroke-width="1.5"></path><path d="M1452.61 556.97L1603.57 488.12" stroke="hsl(0, 0%, 0%)" stroke-width="1.5"></path><path d="M1392 702.94L1392 702.94" stroke="hsl(0, 0%, 0%)" stroke-width="1.5"></path><path d="M1392 702.94L1399.26 860.52" stroke="hsl(0, 0%, 0%)" stroke-width="1.5"></path><path d="M1399.26 860.52L1399.26 860.52" stroke="hsl(0, 0%, 0%)" stroke-width="1.5"></path><path d="M1570.25 -52.57L1570.25 -52.57" stroke="hsl(0, 0%, 0%)" stroke-width="1.5"></path><path d="M1570.25 -52.57L1598.72 54.21" stroke="hsl(0, 0%, 0%)" stroke-width="1.5"></path><path d="M1598.72 54.21L1598.72 54.21" stroke="hsl(0, 0%, 0%)" stroke-width="1.5"></path><path d="M1603.03 239.61L1603.03 239.61" stroke="hsl(0, 0%, 0%)" stroke-width="1.5"></path><path d="M1603.03 239.61L1598.72 54.21" stroke="hsl(0, 0%, 0%)" stroke-width="1.5"></path><path d="M1603.57 488.12L1603.57 488.12" stroke="hsl(0, 0%, 0%)" stroke-width="1.5"></path><circle r="25" cx="391.5" cy="676.48" fill="url(&quot;#SvgjsRadialGradient1003&quot;)"></circle><circle r="25" cx="537.75" cy="653.03" fill="url(&quot;#SvgjsRadialGradient1003&quot;)"></circle><circle r="25" cx="1437.23" cy="211.56" fill="url(&quot;#SvgjsRadialGradient1003&quot;)"></circle><circle r="25" cx="1573.24" cy="792.78" fill="url(&quot;#SvgjsRadialGradient1003&quot;)"></circle><circle r="5" cx="-99.4" cy="653.71" fill="#808080"></circle><circle r="5" cx="-54.57" cy="856.69" fill="#808080"></circle><circle r="5" cx="65.19" cy="699.63" fill="#808080"></circle><circle r="5" cx="102.12" cy="793.81" fill="#808080"></circle><circle r="5" cx="223.4" cy="707.11" fill="#808080"></circle><circle r="5" cx="235.3" cy="852.51" fill="#808080"></circle><circle r="5" cx="394.75" cy="836.94" fill="#808080"></circle><circle r="5" cx="555.86" cy="533.57" fill="#808080"></circle><circle r="5" cx="550.25" cy="826.96" fill="#808080"></circle><circle r="5" cx="696.43" cy="487.57" fill="#808080"></circle><circle r="5" cx="655.29" cy="661.33" fill="#808080"></circle><circle r="5" cx="648.61" cy="848.06" fill="#808080"></circle><circle r="5" cx="842.04" cy="540.61" fill="#808080"></circle><circle r="5" cx="826.98" cy="671.02" fill="#808080"></circle><circle r="5" cx="854.65" cy="791.9" fill="#808080"></circle><circle r="5" cx="1008.91" cy="383.98" fill="#808080"></circle><circle r="5" cx="966.67" cy="545.76" fill="#808080"></circle><circle r="5" cx="938.73" cy="669.85" fill="#808080"></circle><circle r="5" cx="965.9" cy="834.62" fill="#808080"></circle><circle r="5" cx="1156.92" cy="238.42" fill="#808080"></circle><circle r="5" cx="1131.08" cy="374.5" fill="#808080"></circle><circle r="5" cx="1137.54" cy="503.15" fill="#808080"></circle><circle r="5" cx="1136.92" cy="855.54" fill="#808080"></circle><circle r="5" cx="1291.99" cy="-62.7" fill="#808080"></circle><circle r="5" cx="1248.13" cy="42.76" fill="#808080"></circle><circle r="5" cx="1248.2" cy="206.64" fill="#808080"></circle><circle r="5" cx="1275.84" cy="409.87" fill="#808080"></circle><circle r="5" cx="1283.8" cy="519.74" fill="#808080"></circle><circle r="5" cx="1265.29" cy="637.68" fill="#808080"></circle><circle r="5" cx="1303.33" cy="834.04" fill="#808080"></circle><circle r="5" cx="1443.24" cy="-49.43" fill="#808080"></circle><circle r="5" cx="1455.91" cy="57.48" fill="#808080"></circle><circle r="5" cx="1449.98" cy="367.56" fill="#808080"></circle><circle r="5" cx="1452.61" cy="556.97" fill="#808080"></circle><circle r="5" cx="1392" cy="702.94" fill="#808080"></circle><circle r="5" cx="1399.26" cy="860.52" fill="#808080"></circle><circle r="5" cx="1570.25" cy="-52.57" fill="#808080"></circle><circle r="5" cx="1598.72" cy="54.21" fill="#808080"></circle><circle r="5" cx="1603.03" cy="239.61" fill="#808080"></circle><circle r="5" cx="1603.57" cy="488.12" fill="#808080"></circle></g><defs><mask id="SvgjsMask1002"><rect width="1440" height="720" fill="#ffffff"></rect></mask><radialGradient id="SvgjsRadialGradient1003"><stop stop-color="#ffffff" offset="0.1"></stop><stop stop-color="rgba(0, 0, 0, 1)" offset="0.2"></stop><stop stop-color="rgba(0, 0, 0, 0)" offset="1"></stop></radialGradient></defs></svg>