<svg xmlns="http://www.w3.org/2000/svg" version="1.1" xmlns:xlink="http://www.w3.org/1999/xlink" xmlns:svgjs="http://svgjs.dev/svgjs" width="1440" height="720" preserveAspectRatio="none" viewBox="0 0 1440 720"><g mask="url(&quot;#SvgjsMask1321&quot;)" fill="none"><rect width="1440" height="720" x="0" y="0" fill="rgba(255, 255, 255, 1)"></rect><g mask="url(&quot;#SvgjsMask1322&quot;)"><path d="M660 420L700 460M980 420L1020 420L1060 420L1100 420L1140 420L1180 420M900 460L940 460L980 460M780 460L820 420M460 420L500 380L540 380L580 380L620 380L660 380L700 380L740 380L780 380M860 460L900 500M380 380L420 340L460 340M-20 380L20 380L60 380L100 380L140 380L180 380L220 380L260 380L300 380L340 380L380 380L420 380L460 420L500 420L540 420L580 420L620 420L660 420L700 420L740 460L780 460L820 460L860 460L900 460L940 420L980 420L1020 460L1060 500L1100 500L1140 500L1180 500" stroke="rgba(0, 0, 0, 1)" stroke-width="6.67"></path><path d="M1170 500 a10 10 0 1 0 20 0 a10 10 0 1 0 -20 0zM690 460 a10 10 0 1 0 20 0 a10 10 0 1 0 -20 0zM1170 420 a10 10 0 1 0 20 0 a10 10 0 1 0 -20 0zM970 460 a10 10 0 1 0 20 0 a10 10 0 1 0 -20 0zM810 420 a10 10 0 1 0 20 0 a10 10 0 1 0 -20 0zM770 380 a10 10 0 1 0 20 0 a10 10 0 1 0 -20 0zM890 500 a10 10 0 1 0 20 0 a10 10 0 1 0 -20 0zM450 340 a10 10 0 1 0 20 0 a10 10 0 1 0 -20 0z" fill="rgba(0, 0, 0, 1)"></path><path d="M540 300L580 340L620 340L660 340L700 340M260 340L300 340L340 340L380 340M580 300L620 260M1020 380L1060 340L1100 340M780 340L820 300L860 300L900 300M500 300L540 260M980 380L1020 340M-20 340L20 340L60 340L100 340L140 340L180 340L220 340L260 340L300 300L340 300L380 300L420 300L460 300L500 300L540 300L580 300L620 300L660 300L700 300L740 340L780 340L820 340L860 340L900 340L940 340L980 380L1020 380L1060 380L1100 380L1140 340L1180 300" stroke="rgba(0, 0, 0, 1)" stroke-width="6.67"></path><path d="M1170 300 a10 10 0 1 0 20 0 a10 10 0 1 0 -20 0zM690 340 a10 10 0 1 0 20 0 a10 10 0 1 0 -20 0zM370 340 a10 10 0 1 0 20 0 a10 10 0 1 0 -20 0zM610 260 a10 10 0 1 0 20 0 a10 10 0 1 0 -20 0zM1090 340 a10 10 0 1 0 20 0 a10 10 0 1 0 -20 0zM890 300 a10 10 0 1 0 20 0 a10 10 0 1 0 -20 0zM530 260 a10 10 0 1 0 20 0 a10 10 0 1 0 -20 0zM1010 340 a10 10 0 1 0 20 0 a10 10 0 1 0 -20 0z" fill="rgba(0, 0, 0, 1)"></path><path d="M1180 540L1220 580L1260 580L1300 580L1340 580L1380 580M1100 540L1140 580L1180 580M620 500L660 460M580 500L620 460M980 500L1020 540L1060 580L1100 580M1300 540L1340 500L1380 460M1220 540L1260 500L1300 500L1340 460L1380 420M900 540L940 540M-20 420L20 420L60 420L100 420L140 420L180 420L220 420L260 420L300 420L340 420L380 420L420 420L460 460L500 460L540 460L580 500L620 500L660 500L700 500L740 500L780 500L820 500L860 540L900 540L940 500L980 500L1020 500L1060 540L1100 540L1140 540L1180 540L1220 540L1260 540L1300 540L1340 540" stroke="rgba(0, 0, 0, 1)" stroke-width="6.67"></path><path d="M1330 540 a10 10 0 1 0 20 0 a10 10 0 1 0 -20 0zM1370 580 a10 10 0 1 0 20 0 a10 10 0 1 0 -20 0zM1170 580 a10 10 0 1 0 20 0 a10 10 0 1 0 -20 0zM650 460 a10 10 0 1 0 20 0 a10 10 0 1 0 -20 0zM610 460 a10 10 0 1 0 20 0 a10 10 0 1 0 -20 0zM1090 580 a10 10 0 1 0 20 0 a10 10 0 1 0 -20 0zM1370 460 a10 10 0 1 0 20 0 a10 10 0 1 0 -20 0zM1370 420 a10 10 0 1 0 20 0 a10 10 0 1 0 -20 0zM930 540 a10 10 0 1 0 20 0 a10 10 0 1 0 -20 0z" fill="rgba(0, 0, 0, 1)"></path><path d="M460 220L500 260M700 260L740 220L780 220M140 300L180 260L220 260M740 260L780 300M820 260L860 260L900 260M660 220L700 220M-20 300L20 300L60 300L100 300L140 300L180 300L220 300L260 300L300 260L340 260L380 260L420 220L460 220L500 220L540 220L580 220L620 220L660 220L700 260L740 260L780 260L820 260L860 220L900 220L940 260" stroke="rgba(0, 0, 0, 1)" stroke-width="6.67"></path><path d="M930 260 a10 10 0 1 0 20 0 a10 10 0 1 0 -20 0zM490 260 a10 10 0 1 0 20 0 a10 10 0 1 0 -20 0zM770 220 a10 10 0 1 0 20 0 a10 10 0 1 0 -20 0zM210 260 a10 10 0 1 0 20 0 a10 10 0 1 0 -20 0zM770 300 a10 10 0 1 0 20 0 a10 10 0 1 0 -20 0zM890 260 a10 10 0 1 0 20 0 a10 10 0 1 0 -20 0zM690 220 a10 10 0 1 0 20 0 a10 10 0 1 0 -20 0z" fill="rgba(0, 0, 0, 1)"></path><path d="M-20 460L20 460L60 460L100 460L140 460L180 460L220 460L260 460L300 460L340 460L380 460L420 460L460 500L500 500L540 500L580 540L620 540L660 540L700 540L740 540L780 540L820 540L860 580L900 580L940 580L980 580" stroke="rgba(0, 0, 0, 1)" stroke-width="6.67"></path><path d="M970 580 a10 10 0 1 0 20 0 a10 10 0 1 0 -20 0z" fill="rgba(0, 0, 0, 1)"></path><path d="M860 620L900 660L940 660L980 660L1020 660M700 580L740 620L780 620L820 620L860 660M1100 620L1140 660L1180 660M620 580L660 620L700 620M460 540L500 580L540 620L580 620L620 620L660 660M220 500L260 540M100 500L140 540M340 500L380 540L420 540L460 580M-20 500L20 500L60 500L100 500L140 500L180 500L220 500L260 500L300 500L340 500L380 500L420 500L460 540L500 540L540 540L580 580L620 580L660 580L700 580L740 580L780 580L820 580L860 620L900 620L940 620L980 620L1020 620L1060 620L1100 620L1140 620L1180 620L1220 620L1260 620L1300 620" stroke="rgba(0, 0, 0, 1)" stroke-width="6.67"></path><path d="M1290 620 a10 10 0 1 0 20 0 a10 10 0 1 0 -20 0zM1010 660 a10 10 0 1 0 20 0 a10 10 0 1 0 -20 0zM850 660 a10 10 0 1 0 20 0 a10 10 0 1 0 -20 0zM1170 660 a10 10 0 1 0 20 0 a10 10 0 1 0 -20 0zM690 620 a10 10 0 1 0 20 0 a10 10 0 1 0 -20 0zM650 660 a10 10 0 1 0 20 0 a10 10 0 1 0 -20 0zM250 540 a10 10 0 1 0 20 0 a10 10 0 1 0 -20 0zM130 540 a10 10 0 1 0 20 0 a10 10 0 1 0 -20 0zM450 580 a10 10 0 1 0 20 0 a10 10 0 1 0 -20 0z" fill="rgba(0, 0, 0, 1)"></path><path d="M260 220L300 180M820 180L860 140L900 140L940 140L980 140M780 180L820 140L860 100L900 100L940 100M100 220L140 180L180 180L220 180M420 180L460 140L500 140L540 140M-20 220L20 220L60 220L100 220L140 220L180 220L220 220L260 220L300 220L340 220L380 220L420 180L460 180L500 180L540 180L580 180L620 180L660 180L700 180L740 180L780 180L820 180L860 180" stroke="rgba(0, 0, 0, 1)" stroke-width="6.67"></path><path d="M850 180 a10 10 0 1 0 20 0 a10 10 0 1 0 -20 0zM290 180 a10 10 0 1 0 20 0 a10 10 0 1 0 -20 0zM970 140 a10 10 0 1 0 20 0 a10 10 0 1 0 -20 0zM930 100 a10 10 0 1 0 20 0 a10 10 0 1 0 -20 0zM210 180 a10 10 0 1 0 20 0 a10 10 0 1 0 -20 0zM530 140 a10 10 0 1 0 20 0 a10 10 0 1 0 -20 0z" fill="rgba(0, 0, 0, 1)"></path></g></g><defs><mask id="SvgjsMask1321"><rect width="1440" height="720" fill="#ffffff"></rect></mask><mask id="SvgjsMask1322"><rect width="1440" height="720" fill="white"></rect><path d="M1175 500 a5 5 0 1 0 10 0 a5 5 0 1 0 -10 0zM695 460 a5 5 0 1 0 10 0 a5 5 0 1 0 -10 0zM1175 420 a5 5 0 1 0 10 0 a5 5 0 1 0 -10 0zM975 460 a5 5 0 1 0 10 0 a5 5 0 1 0 -10 0zM815 420 a5 5 0 1 0 10 0 a5 5 0 1 0 -10 0zM775 380 a5 5 0 1 0 10 0 a5 5 0 1 0 -10 0zM895 500 a5 5 0 1 0 10 0 a5 5 0 1 0 -10 0zM455 340 a5 5 0 1 0 10 0 a5 5 0 1 0 -10 0z" fill="black"></path><path d="M1175 300 a5 5 0 1 0 10 0 a5 5 0 1 0 -10 0zM695 340 a5 5 0 1 0 10 0 a5 5 0 1 0 -10 0zM375 340 a5 5 0 1 0 10 0 a5 5 0 1 0 -10 0zM615 260 a5 5 0 1 0 10 0 a5 5 0 1 0 -10 0zM1095 340 a5 5 0 1 0 10 0 a5 5 0 1 0 -10 0zM895 300 a5 5 0 1 0 10 0 a5 5 0 1 0 -10 0zM535 260 a5 5 0 1 0 10 0 a5 5 0 1 0 -10 0zM1015 340 a5 5 0 1 0 10 0 a5 5 0 1 0 -10 0z" fill="black"></path><path d="M1335 540 a5 5 0 1 0 10 0 a5 5 0 1 0 -10 0zM1375 580 a5 5 0 1 0 10 0 a5 5 0 1 0 -10 0zM1175 580 a5 5 0 1 0 10 0 a5 5 0 1 0 -10 0zM655 460 a5 5 0 1 0 10 0 a5 5 0 1 0 -10 0zM615 460 a5 5 0 1 0 10 0 a5 5 0 1 0 -10 0zM1095 580 a5 5 0 1 0 10 0 a5 5 0 1 0 -10 0zM1375 460 a5 5 0 1 0 10 0 a5 5 0 1 0 -10 0zM1375 420 a5 5 0 1 0 10 0 a5 5 0 1 0 -10 0zM935 540 a5 5 0 1 0 10 0 a5 5 0 1 0 -10 0z" fill="black"></path><path d="M935 260 a5 5 0 1 0 10 0 a5 5 0 1 0 -10 0zM495 260 a5 5 0 1 0 10 0 a5 5 0 1 0 -10 0zM775 220 a5 5 0 1 0 10 0 a5 5 0 1 0 -10 0zM215 260 a5 5 0 1 0 10 0 a5 5 0 1 0 -10 0zM775 300 a5 5 0 1 0 10 0 a5 5 0 1 0 -10 0zM895 260 a5 5 0 1 0 10 0 a5 5 0 1 0 -10 0zM695 220 a5 5 0 1 0 10 0 a5 5 0 1 0 -10 0z" fill="black"></path><path d="M975 580 a5 5 0 1 0 10 0 a5 5 0 1 0 -10 0z" fill="black"></path><path d="M1295 620 a5 5 0 1 0 10 0 a5 5 0 1 0 -10 0zM1015 660 a5 5 0 1 0 10 0 a5 5 0 1 0 -10 0zM855 660 a5 5 0 1 0 10 0 a5 5 0 1 0 -10 0zM1175 660 a5 5 0 1 0 10 0 a5 5 0 1 0 -10 0zM695 620 a5 5 0 1 0 10 0 a5 5 0 1 0 -10 0zM655 660 a5 5 0 1 0 10 0 a5 5 0 1 0 -10 0zM255 540 a5 5 0 1 0 10 0 a5 5 0 1 0 -10 0zM135 540 a5 5 0 1 0 10 0 a5 5 0 1 0 -10 0zM455 580 a5 5 0 1 0 10 0 a5 5 0 1 0 -10 0z" fill="black"></path><path d="M855 180 a5 5 0 1 0 10 0 a5 5 0 1 0 -10 0zM295 180 a5 5 0 1 0 10 0 a5 5 0 1 0 -10 0zM975 140 a5 5 0 1 0 10 0 a5 5 0 1 0 -10 0zM935 100 a5 5 0 1 0 10 0 a5 5 0 1 0 -10 0zM215 180 a5 5 0 1 0 10 0 a5 5 0 1 0 -10 0zM535 140 a5 5 0 1 0 10 0 a5 5 0 1 0 -10 0z" fill="black"></path></mask></defs></svg>