<svg xmlns="http://www.w3.org/2000/svg" version="1.1" xmlns:xlink="http://www.w3.org/1999/xlink" xmlns:svgjs="http://svgjs.dev/svgjs" width="1440" height="720" preserveAspectRatio="none" viewBox="0 0 1440 720"><g mask="url(&quot;#SvgjsMask1000&quot;)" fill="none"><rect width="1440" height="720" x="0" y="0" fill="rgba(255, 255, 255, 1)"></rect><path d="M -627.9717540046366,412 C -531.97,351.6 -339.97,105.8 -147.97175400463664,110 C 44.03,114.2 140.03,394.6 332.02824599536336,433 C 524.03,471.4 620.03,265.8 812.0282459953634,302 C 1004.03,338.2 1166.43,612 1292.0282459953632,614 C 1417.62,616 1410.41,372.4 1440,312" stroke="rgba(0, 0, 0, 1)" stroke-width="2"></path><path d="M -487.22327533406497,298 C -391.22,359 -199.22,618.6 -7.223275334064958,603 C 184.78,587.4 280.78,225.2 472.77672466593503,220 C 664.78,214.8 760.78,620.6 952.776724665935,577 C 1144.78,533.4 1335.33,-1.4 1432.776724665935,2 C 1530.22,5.4 1438.56,475.6 1440,594" stroke="rgba(0, 0, 0, 1)" stroke-width="2"></path><path d="M -23.460130335588815,517 C 72.54,434.8 264.54,113.2 456.5398696644112,106 C 648.54,98.8 744.54,436.4 936.5398696644112,481 C 1128.54,525.6 1224.54,315.6 1416.539869664411,329 C 1608.54,342.4 1891.85,568 1896.539869664411,548 C 1901.23,528 1531.31,292.8 1440,229" stroke="rgba(0, 0, 0, 1)" stroke-width="2"></path><path d="M -863.1370556305384,704 C -767.14,590.4 -575.14,186.2 -383.1370556305384,136 C -191.14,85.8 -95.14,437 96.86294436946162,453 C 288.86,469 384.86,225 576.8629443694616,216 C 768.86,207 884.24,412.8 1056.8629443694617,408 C 1229.49,403.2 1363.37,235.2 1440,192" stroke="rgba(0, 0, 0, 1)" stroke-width="2"></path><path d="M -232.97994711853434,638 C -136.98,572.4 55.02,322.2 247.02005288146566,310 C 439.02,297.8 535.02,627.2 727.0200528814656,577 C 919.02,526.8 1015.02,95 1207.0200528814657,59 C 1399.02,23 1640.42,349.6 1687.0200528814657,397 C 1733.62,444.4 1489.4,316.2 1440,296" stroke="rgba(0, 0, 0, 1)" stroke-width="2"></path></g><defs><mask id="SvgjsMask1000"><rect width="1440" height="720" fill="#ffffff"></rect></mask></defs></svg>